HIERARCHY
ROOT Hips
{
	OFFSET -3.958830 18.904000 13.208200
	CHANNELS 6 Xposition Yposition Zposition Zrotation Yrotation Xrotation 
	JOINT LHipJoint
	{
		OFFSET 0.000000 0.000000 0.000000
		CHANNELS 3 Zrotation Yrotation Xrotation
		JOINT LeftUpLeg
		{
			OFFSET 1.800000 -1.400000 0.085000
			CHANNELS 3 Zrotation Yrotation Xrotation
			JOINT LeftLeg
			{
				OFFSET 2.215000 -6.000000 0.000000
				CHANNELS 3 Zrotation Yrotation Xrotation
				JOINT LeftFoot
				{
					OFFSET 2.500000 -6.900000 0.000000
					CHANNELS 3 Zrotation Yrotation Xrotation
					JOINT LeftToeBase
					{
						OFFSET 0.200000 -0.500000 1.950000
						CHANNELS 3 Zrotation Yrotation Xrotation
						End Site
						{
							OFFSET 0.000000 0.000000 0.000000
						}
					}
				}
			}
		}
	}
	JOINT RHipJoint
	{
		OFFSET 0.000000 0.000000 0.000000
		CHANNELS 3 Zrotation Yrotation Xrotation
		JOINT RightUpLeg
		{
			OFFSET -1.800000 -1.400000 0.085000
			CHANNELS 3 Zrotation Yrotation Xrotation
			JOINT RightLeg
			{
				OFFSET -2.215000 -6.000000 0.000000
				CHANNELS 3 Zrotation Yrotation Xrotation
				JOINT RightFoot
				{
					OFFSET -2.500000 -6.900000 0.000000
					CHANNELS 3 Zrotation Yrotation Xrotation
					JOINT RightToeBase
					{
						OFFSET -0.200000 -0.500000 1.950000
						CHANNELS 3 Zrotation Yrotation Xrotation
						End Site
						{
							OFFSET 0.000000 0.000000 0.000000
						}
					}
				}
			}
		}
	}
	JOINT LowerBack
	{
		OFFSET 0.000000 0.000000 0.000000
		CHANNELS 3 Zrotation Yrotation Xrotation
		JOINT Spine
		{
			OFFSET -0.087000 1.940000 -0.288900
			CHANNELS 3 Zrotation Yrotation Xrotation
			JOINT Spine1
			{
				OFFSET 0.000000 1.950000 0.060000
				CHANNELS 3 Zrotation Yrotation Xrotation
				JOINT Neck
				{
					OFFSET 0.000000 0.000000 0.000000
					CHANNELS 3 Zrotation Yrotation Xrotation
					JOINT Neck1
					{
						OFFSET 0.000000 1.600000 0.340000
						CHANNELS 3 Zrotation Yrotation Xrotation
						JOINT Head
						{
							OFFSET 0.000000 1.667000 -0.240000
							CHANNELS 3 Zrotation Yrotation Xrotation
							End Site
							{
								OFFSET 0.000000 0.000000 0.000000
							}
						}
					}
				}
				JOINT LeftShoulder
				{
					OFFSET 0.000000 0.000000 0.000000
					CHANNELS 3 Zrotation Yrotation Xrotation
					JOINT LeftArm
					{
						OFFSET 2.700000 1.550000 -0.730000
						CHANNELS 3 Zrotation Yrotation Xrotation
						JOINT LeftForeArm
						{
							OFFSET 5.450000 0.000000 0.000000
							CHANNELS 3 Zrotation Yrotation Xrotation
							JOINT LeftHand
							{
								OFFSET 3.450000 0.000000 0.000000
								CHANNELS 3 Zrotation Yrotation Xrotation
								JOINT LeftHandIndex1
								{
									OFFSET 0.750000 0.000000 0.000000
									CHANNELS 3 Zrotation Yrotation Xrotation
									End Site
									{
										OFFSET 0.000000 0.000000 0.000000
									}
								}
							}
						}
					}
				}
				JOINT RightShoulder
				{
					OFFSET 0.000000 0.000000 0.000000
					CHANNELS 3 Zrotation Yrotation Xrotation
					JOINT RightArm
					{
						OFFSET -2.700000 1.550000 -0.730000
						CHANNELS 3 Zrotation Yrotation Xrotation
						JOINT RightForeArm
						{
							OFFSET -5.450000 0.000000 0.000000
							CHANNELS 3 Zrotation Yrotation Xrotation
							JOINT RightHand
							{
								OFFSET -3.450000 0.000000 0.000000
								CHANNELS 3 Zrotation Yrotation Xrotation
								JOINT RightHandIndex1
								{
									OFFSET -0.750000 0.000000 0.000000
									CHANNELS 3 Zrotation Yrotation Xrotation
									End Site
									{
										OFFSET 0.000000 0.000000 0.000000
									}
								}
							}
						}
					}
				}
			}
		}
	}
}
MOTION
Frames: 13
Frame Time: 0.016667
0.465150 16.931640 -2.471460 -1.025110 61.986702 -0.768350 -15.590243 10.286346 4.954207 10.132636 -2.650455 -47.660553 -4.256671 19.989555 60.386257 0.316654 12.819925 0.221236 0.432090 -0.223490 0.363540 18.137687 -10.721946 2.494684 -27.999355 6.271046 -21.251177 13.399246 -8.803380 22.223217 -0.133475 -5.209868 2.641274 0.164030 0.369640 0.053150 -4.598255 2.806539 -8.603889 12.332003 8.776814 18.784981 -8.662181 11.970160 3.431481 6.395144 12.097646 -11.554045 24.397972 -31.977359 20.728718 1.007140 -26.400980 -13.739250 -25.096645 -15.017288 10.550856 -28.966885 17.885106 -5.394081 -6.052169 -16.020894 -1.471672 -3.667927 2.633250 0.825090 0.165410 -0.351060 0.123010 10.613883 13.612172 1.221651 -2.690323 19.204107 -4.798158 2.830757 52.199135 3.541191 1.538843 -1.522313 -0.576440 0.529100 0.165090 -0.463540 
0.480870 16.856670 -2.466700 -0.448962 62.224225 -3.336984 -15.628061 10.306774 5.282781 12.537845 -1.521721 -48.684524 -4.301301 22.507174 65.674334 0.681357 13.918810 -0.121960 0.439970 -0.230670 0.463190 18.061591 -10.787453 2.258963 -27.888016 6.799248 -17.980132 12.791272 -9.212404 24.205954 -0.260382 -5.358628 2.585310 0.081050 0.185530 0.023820 -4.707094 2.767327 -8.918423 15.092219 8.244867 23.170364 -12.038093 13.201482 -0.089080 6.076042 12.616488 -12.772179 25.091978 -33.869865 24.938089 1.560410 -27.456860 -16.029180 -27.083128 -16.810473 11.336167 -27.438665 18.245619 -5.677188 -3.157703 -20.377993 -1.359000 -3.461489 2.679403 0.949390 0.018720 -0.211570 0.076210 12.409498 16.009564 1.639902 -4.392569 21.429790 -3.504872 6.631780 35.166583 4.198775 1.704746 -1.306358 -0.533500 0.473750 0.106430 -0.509740 
0.492140 16.780280 -2.448000 1.316231 62.458663 -4.181302 -15.643056 10.353507 5.498174 14.486759 -0.809791 -48.587156 -4.529419 24.369409 69.137916 0.969616 14.654916 -0.315329 0.391970 -0.303750 0.440620 18.009465 -10.863338 2.062187 -28.414666 6.824539 -14.649805 11.977787 -9.362564 24.811325 -0.302579 -5.494639 2.563670 -0.011320 0.121990 0.004280 -4.685694 2.645327 -9.091025 15.935616 7.849356 25.895602 -13.885872 13.887706 -2.433942 5.586778 12.063485 -13.771561 23.126329 -33.870395 30.173108 2.986320 -29.128950 -15.540710 -28.362122 -17.425737 11.201825 -27.550434 17.812251 -6.617368 -0.121148 -25.520615 -1.646320 -3.361290 2.740937 0.988660 -0.047740 -0.181900 0.057940 14.351606 17.838968 2.924708 -3.299433 21.864438 -3.109837 3.450276 23.765843 2.378375 1.831097 -1.091176 -0.506360 0.421350 0.104320 -0.510690 
0.513290 16.699990 -2.414420 1.841043 63.514389 -5.740600 -15.671667 10.396125 5.559087 16.761525 -0.123663 -47.434943 -3.906096 24.835851 71.252908 1.306366 14.824312 -0.313383 0.405770 -0.226060 0.337970 17.945146 -10.942931 1.977792 -28.817204 6.379341 -10.595430 12.201742 -9.592278 24.002917 -0.364330 -5.738091 2.517289 -0.061820 0.086400 0.021570 -4.707890 2.618813 -9.270146 16.526156 6.912991 26.317519 -14.039134 13.745414 -1.351839 5.725952 9.959893 -14.930311 18.512236 -31.313623 35.787361 5.388440 -30.578270 -13.692690 -28.647126 -17.620211 10.696892 -30.798373 15.698072 -8.587564 4.453744 -30.781462 -2.711523 -3.251822 2.936328 0.858570 -0.085540 -0.164280 0.122940 14.445817 20.636492 5.068824 -1.412390 22.003466 -2.541578 -1.351963 14.037643 0.719202 2.058595 -1.047947 -0.346260 0.293400 0.031580 -0.390650 
0.540110 16.611820 -2.380570 1.767842 64.177361 -6.686914 -15.692674 10.337127 5.561642 19.197211 0.756935 -46.600742 -2.785649 24.660211 72.195448 1.366463 14.914872 -0.284192 0.315880 -0.352160 0.247560 17.931970 -10.953096 1.986636 -29.398971 6.199306 -8.509170 13.095706 -10.180228 24.007246 -0.374245 -6.041547 2.448342 -0.131530 0.174720 -0.001210 -4.771675 2.685784 -9.500582 16.769316 6.198592 24.723036 -13.768516 13.413226 1.526472 5.961935 7.541793 -16.587258 13.981042 -28.398721 39.907985 5.865200 -31.364510 -11.086050 -27.048849 -18.375949 10.189824 -35.401869 12.728704 -10.460158 6.975182 -35.113814 -4.018787 -3.247651 2.885427 0.835240 -0.065550 -0.230240 0.144690 12.684483 23.957278 7.470087 1.002578 22.302555 -1.574628 -4.538906 5.852289 0.087906 2.254079 -0.930502 -0.383560 0.319730 0.072150 -0.356960 
0.546070 16.547900 -2.345440 1.279725 63.933700 -8.041264 -15.711179 10.477640 5.362643 21.588717 2.029419 -44.307508 -1.166940 23.535555 71.430466 1.358383 14.525947 -0.155618 0.316550 -0.337410 0.200350 17.911249 -10.987120 2.040574 -29.683714 5.983832 -8.097382 13.754513 -10.639699 24.740795 -0.393137 -6.251695 2.411985 -0.143270 0.200580 -0.022650 -4.793782 2.655164 -9.594510 16.266843 5.846652 23.315895 -12.937620 12.863994 4.014814 6.170599 5.788540 -17.523503 10.764755 -26.050648 43.029662 6.490640 -31.698440 -9.261310 -26.162419 -19.170845 9.934436 -39.778475 9.482752 -11.966708 9.602028 -38.524658 -5.549257 -3.201183 2.888947 0.774680 -0.062670 -0.258110 0.186810 11.886780 26.401690 8.671558 2.587022 23.234794 -0.336408 -3.405003 1.662303 0.141409 2.400031 -0.878568 -0.352750 0.309510 0.042960 -0.309040 
0.543280 16.501370 -2.315370 -2.096462 63.274509 -11.504815 -15.734901 10.794965 5.096709 24.646295 3.604289 -41.601214 1.435092 20.923255 68.564128 1.252594 13.611154 0.116922 0.285460 -0.334140 0.111080 17.889109 -11.026736 2.063993 -28.217914 5.895952 -9.336404 13.967390 -11.196916 27.494811 -0.421806 -6.413676 2.402241 -0.182690 0.238840 -0.044280 -5.012640 2.539440 -9.614454 17.491871 5.076721 21.788472 -12.252539 11.908454 5.291489 5.653808 4.031849 -17.564782 6.622695 -23.609751 46.095573 8.853590 -32.736760 -7.716860 -24.528600 -19.432098 9.553212 -44.452354 5.260454 -12.276681 10.034001 -39.457723 -6.160261 -3.167748 2.855174 0.708480 -0.065350 -0.272660 0.235420 11.691598 26.963563 9.634282 4.949251 23.058276 -0.024062 -2.806891 5.909176 0.332981 2.344464 -0.933360 -0.308700 0.296570 0.017370 -0.233020 
0.538780 16.475720 -2.308650 -5.886026 62.000858 -15.229411 -15.732953 11.219355 4.770057 27.603778 4.807599 -37.943893 3.002377 18.451949 63.728134 1.078373 12.527808 0.396680 0.330190 -0.260330 0.078920 17.881754 -11.066242 2.060890 -26.374966 5.653205 -10.670669 13.268722 -11.445448 30.162751 -0.478607 -6.491135 2.394635 -0.185760 0.227930 -0.009870 -5.181678 2.297401 -9.501614 18.645802 4.197140 20.292906 -11.173019 10.438843 6.152707 5.208586 2.796884 -17.036170 3.523111 -21.137515 48.761071 11.156470 -32.528120 -7.571760 -23.254994 -19.649587 9.648844 -48.735892 1.951179 -12.458551 8.864314 -41.869699 -6.598551 -3.121129 2.906976 0.674020 -0.080040 -0.241050 0.281140 11.641348 26.719303 9.664365 8.211571 22.663283 -0.776075 -2.345566 14.817721 0.612485 2.159138 -1.106238 -0.225850 0.239310 -0.024620 -0.179380 
0.555560 16.458060 -2.309150 -9.158476 60.837504 -17.962327 -15.718741 11.605090 4.360923 30.285641 5.301825 -33.624997 3.567294 16.125225 56.919719 0.767489 11.281558 0.729276 0.408700 -0.168880 0.161740 17.879765 -11.156111 2.058194 -24.404726 4.828723 -11.358135 12.579202 -11.404988 31.071730 -0.521428 -6.411008 2.434487 -0.136470 0.179050 -0.015720 -5.320262 2.182235 -9.263281 18.672007 3.738500 17.807585 -10.492061 8.857709 6.691084 5.007929 3.552165 -16.590241 4.742136 -20.434469 50.325546 10.304920 -30.594070 -6.666960 -22.684251 -20.140778 9.995767 -50.782012 -0.313937 -11.717643 5.183669 -42.927579 -5.696420 -3.102015 2.895140 0.687820 -0.095370 -0.197450 0.294650 11.536295 25.208288 9.663216 14.029611 19.936034 -2.886277 -0.136521 28.967371 1.114299 1.895560 -1.307051 -0.209390 0.238290 -0.086560 -0.198950 
0.604870 16.409030 -2.311300 -10.575217 59.417031 -17.599971 -15.699856 11.812912 3.876776 32.186955 5.284574 -29.271161 3.068307 14.544838 49.492443 0.543303 10.153359 1.089201 0.428490 -0.156000 0.158230 17.913248 -11.226189 2.102900 -23.748267 3.945253 -13.397641 12.420415 -11.497794 31.196074 -0.481421 -6.418139 2.424174 -0.123110 0.223950 0.046390 -5.357944 2.174046 -8.922630 16.806324 4.018862 13.850136 -8.559954 7.351430 7.153123 4.428928 4.369439 -14.971246 5.987615 -20.141565 46.927200 7.826150 -29.167900 -2.422110 -21.483358 -19.169593 9.846051 -52.722072 -2.700402 -10.070008 -0.554965 -43.736068 -3.643788 -3.200072 3.012028 0.587200 -0.013840 -0.244040 0.324400 11.691424 22.129825 8.710325 18.619672 16.702775 -4.540137 8.600569 43.614251 3.698247 1.787765 -1.583709 -0.167940 0.170280 -0.108830 -0.174970 
0.643840 16.369150 -2.326600 -11.789170 57.932313 -17.377007 -15.684212 12.205223 3.381698 33.328720 4.399749 -24.596697 3.170542 12.633143 42.939813 0.289298 9.084503 1.443280 0.450710 -0.132680 0.185560 17.897348 -11.309152 2.120022 -22.808352 2.726272 -14.974811 11.746535 -11.314667 30.710173 -0.437458 -6.266452 2.479891 -0.092640 0.252570 0.086270 -5.108861 1.780863 -8.499179 14.261305 3.680067 11.079038 -6.383662 5.771959 7.728547 3.956255 5.518203 -14.022405 7.796156 -20.294335 43.718279 5.105570 -26.947100 -0.488360 -20.375774 -18.196930 9.388535 -52.848812 -4.719001 -8.149825 -8.613551 -45.576202 -0.446408 -3.300405 3.077344 0.545270 0.056390 -0.267120 0.330500 11.808178 18.852277 8.500389 22.771213 12.432127 -5.583378 21.534127 57.687812 9.725852 1.762774 -1.801481 -0.164460 0.154460 -0.116720 -0.186800 
0.653670 16.362040 -2.363190 -11.391023 56.040982 -16.676199 -15.657352 12.845694 2.973439 33.444094 3.218450 -19.369464 3.215401 10.938429 37.148113 0.157343 8.082073 1.784356 0.478680 -0.126320 0.221300 17.803784 -11.316205 2.257286 -23.072582 1.639982 -15.821412 11.999847 -11.217180 29.354790 -0.432501 -6.038454 2.537854 -0.114650 0.210840 0.095000 -4.578085 0.736339 -8.294827 10.752100 2.564491 10.818549 -4.192419 4.190226 8.086420 2.924447 5.059928 -14.505624 6.098583 -17.890094 45.741045 7.987700 -26.088530 -0.418040 -19.666865 -18.575000 9.595644 -52.692813 -5.681421 -7.484345 -14.815310 -49.623660 2.270550 -3.232246 3.170235 0.588350 0.013840 -0.226350 0.337130 13.492244 18.395470 9.479063 23.669057 8.359805 -5.746831 39.097053 68.216871 21.338696 1.887101 -1.919880 -0.144390 0.110130 -0.152970 -0.197800 
0.640010 16.351590 -2.415890 -10.003677 53.721581 -15.169425 -15.676809 13.342018 2.647744 32.616199 1.930402 -15.052778 3.292742 9.783143 33.515377 0.003674 7.519337 2.000677 0.483840 -0.130340 0.248070 17.705522 -11.266175 2.363348 -23.725029 0.799328 -17.974202 11.554812 -11.333633 29.926999 -0.413970 -6.001768 2.533427 -0.092350 0.229190 0.090650 -3.816451 -0.217382 -7.995316 5.477514 1.773542 10.839357 -0.950221 2.845106 9.266583 2.447237 5.102929 -14.470153 5.951934 -16.008338 44.839882 8.666860 -23.371280 -1.590700 -18.593943 -17.778848 9.065618 -52.344353 -6.823783 -6.689599 -22.909376 -55.187635 6.734520 -3.272222 3.212734 0.626360 0.030520 -0.232090 0.322090 13.949300 16.776151 10.211621 25.119276 5.586358 -4.227087 63.635464 74.639918 38.641391 2.191691 -1.630320 -0.188790 0.143410 -0.134420 -0.236450 
